<svg width="26" height="25" viewBox="0 0 26 25" fill="none" xmlns="http://www.w3.org/2000/svg">
<path fill-rule="evenodd" clip-rule="evenodd" d="M22.6936 15.0867C19.531 18.2378 14.575 18.511 11.101 15.907L1.97479 25L0.291504 23.3228L9.40595 14.2416C6.71071 10.7747 6.95998 5.76975 10.1535 2.58781C13.6166 -0.862603 19.2306 -0.862603 22.6936 2.58781C26.1575 6.0391 26.1575 11.6354 22.6936 15.0867ZM21.0126 13.4073C18.4783 15.9323 14.3688 15.9323 11.8346 13.4073C9.3012 10.8831 9.3012 6.79137 11.8346 4.26722C14.3688 1.7422 18.4783 1.7422 21.0126 4.26722C23.5459 6.79137 23.5459 10.8831 21.0126 13.4073Z" fill="black"/>
</svg>
