<svg width="97" height="97" viewBox="0 0 97 97" fill="none" xmlns="http://www.w3.org/2000/svg">
<path d="M48.5 58.0299C53.7632 58.0299 58.0299 53.7632 58.0299 48.5C58.0299 43.2368 53.7632 38.9701 48.5 38.9701C43.2368 38.9701 38.9701 43.2368 38.9701 48.5C38.9701 53.7632 43.2368 58.0299 48.5 58.0299Z" fill="white"/>
<path fill-rule="evenodd" clip-rule="evenodd" d="M59.1584 23.5468H37.7162C29.8906 23.5468 23.5468 29.8906 23.5468 37.7162V59.1584C23.5468 66.984 29.8906 73.3278 37.7162 73.3278H59.1584C66.984 73.3278 73.3278 66.984 73.3278 59.1584V37.7162C73.3278 29.8906 66.984 23.5468 59.1584 23.5468ZM48.5 63.9233C57.0181 63.9233 63.9234 57.0181 63.9234 48.5C63.9234 39.9819 57.0181 33.0766 48.5 33.0766C39.9819 33.0766 33.0766 39.9819 33.0766 48.5C33.0766 57.0181 39.9819 63.9233 48.5 63.9233ZM64.613 35.8353C66.5867 35.8353 68.1867 34.2353 68.1867 32.2616C68.1867 30.2879 66.5867 28.6879 64.613 28.6879C62.6393 28.6879 61.0393 30.2879 61.0393 32.2616C61.0393 34.2353 62.6393 35.8353 64.613 35.8353Z" fill="white"/>
<path fill-rule="evenodd" clip-rule="evenodd" d="M97 0H0V97H97V0ZM37.7162 17.6533C26.6358 17.6533 17.6533 26.6357 17.6533 37.7162V59.1584C17.6533 70.2388 26.6358 79.2213 37.7162 79.2213H59.1584C70.2388 79.2213 79.2213 70.2388 79.2213 59.1584V37.7162C79.2213 26.6357 70.2388 17.6533 59.1584 17.6533H37.7162Z" fill="white"/>
</svg>
