<svg width="97" height="97" viewBox="0 0 97 97" fill="none" xmlns="http://www.w3.org/2000/svg">
<path fill-rule="evenodd" clip-rule="evenodd" d="M97 0H0V97H97V0ZM33.8372 24.72C33.8372 28.0941 31.1019 30.8295 27.7277 30.8295C24.3535 30.8295 21.6182 28.0941 21.6182 24.72C21.6182 21.3458 24.3535 18.6105 27.7277 18.6105C31.1019 18.6105 33.8372 21.3458 33.8372 24.72ZM21.6182 33.8372H33.6492V75.9457H21.6182V33.8372ZM39.8527 33.8372H51.8837V37.9605C54.4346 35.4127 57.9568 33.8372 61.8469 33.8372C69.6335 33.8372 75.9457 40.1495 75.9457 47.936C75.9457 48.8355 75.8615 49.7152 75.7005 50.5678H75.9457V75.9457H63.9147V50.5678C63.9147 47.2456 61.2215 44.5523 57.8992 44.5523C54.577 44.5523 51.8837 47.2456 51.8837 50.5678V75.9457H39.8527V33.8372Z" fill="white"/>
</svg>
