<svg width="97" height="97" viewBox="0 0 97 97" fill="none" xmlns="http://www.w3.org/2000/svg">
<path fill-rule="evenodd" clip-rule="evenodd" d="M97 0H0V97H97V0ZM39.626 46.6061C39.003 49.1569 37.3831 55.6715 35.8878 61.3226C34.0187 68.3865 34.4122 77.4127 34.9041 79.0806C37.1339 77.7397 42.1247 71.7812 44.2496 58.6736C44.3616 58.7534 44.4724 58.8324 44.582 58.9106C49.1926 62.1997 51.8321 64.0825 59.5961 61.3226C68.6465 57.9869 72.0896 47.6853 72.5815 41.7987C73.0734 35.9121 71.4994 25.5124 61.9571 20.705C52.4147 15.8976 36.7732 16.7806 28.8048 27.5727C20.8365 38.3648 24.2796 52.1983 33.2317 53.2776C34.1171 52.1983 35.3566 49.3532 33.2317 46.6061C30.5756 43.1722 30.1821 33.4593 38.839 27.0821C47.496 20.705 58.4156 22.6672 62.744 31.4971C67.0725 40.327 61.3668 56.8095 52.8082 56.4171C45.9614 56.1031 46.3483 50.5959 47.3976 47.8815L49.6602 40.0327C50.3489 37.8743 50.8604 33.2435 47.3976 31.9876C43.0691 30.4179 39.9212 32.7725 38.839 37.5799C37.7569 42.3873 38.4455 45.3306 39.626 46.6061Z" fill="white"/>
</svg>
