<svg width="97" height="97" viewBox="0 0 97 97" fill="none" xmlns="http://www.w3.org/2000/svg">
<path d="M40.6805 43.2325C40.6903 43.2259 40.7001 43.2193 40.7099 43.2127L40.725 43.2025L40.7197 43.2325H40.6805Z" fill="white"/>
<path fill-rule="evenodd" clip-rule="evenodd" d="M97 0H0V97H97V0ZM70.5474 37.4588C70.5589 37.6804 70.5686 37.8672 70.533 38.1626L70.534 38.4342L70.534 38.4794C70.534 56.6546 55.8407 71.3884 37.7155 71.3884C31.522 71.3884 25.7292 69.668 20.7864 66.6778C20.9219 66.6797 21.0576 66.6807 21.1935 66.6807C27.4081 66.6807 33.1534 64.6659 37.8152 61.2521C37.3687 61.3096 36.9136 61.3392 36.4516 61.3392C31.5492 61.3392 27.4235 58.0047 26.207 53.4741C26.8818 53.5857 27.5745 53.6438 28.2808 53.6438C29.3677 53.6438 30.4226 53.5063 31.429 53.2475C26.1356 52.2087 22.1414 47.5319 22.1414 41.9197C22.1414 41.8875 22.1416 41.8554 22.1418 41.8233C22.142 41.8024 22.1422 41.7815 22.1425 41.7607C23.765 42.5893 25.5761 43.0998 27.4942 43.2099C24.3204 41.073 22.2317 37.4406 22.2317 33.319C22.2317 31.333 22.7167 29.4606 23.5743 27.8143C29.6838 34.6801 38.2792 39.2736 47.9432 40.1734C47.6619 39.1743 47.5114 38.1202 47.5114 37.0309C47.5114 30.6558 52.6652 25.4879 59.0227 25.4879C62.3275 25.4879 65.307 26.8843 67.4064 29.1209C70.1766 28.8409 72.7306 27.8265 74.872 26.2749C74.0052 29.0189 72.1473 31.3209 69.7196 32.758C69.7312 32.7872 69.7427 32.8164 69.754 32.8457L69.7637 32.8708C72.0506 32.6434 74.2341 31.9756 76.2136 30.9425C74.9762 33.494 72.9684 35.5562 70.533 36.8735C70.5337 36.9259 70.534 36.9784 70.534 37.0309C70.534 37.2009 70.541 37.3353 70.5474 37.4588Z" fill="white"/>
</svg>
