<svg width="97" height="97" viewBox="0 0 97 97" fill="none" xmlns="http://www.w3.org/2000/svg">
<path d="M59.4819 48.4952L42.9526 57.9767V39.0136L59.4819 48.4952Z" fill="white"/>
<path fill-rule="evenodd" clip-rule="evenodd" d="M97 0H0V97H97V0ZM16.9833 37.6017C16.9833 32.1696 21.1085 27.6414 26.5468 27.3051C32.1367 26.9594 39.7985 26.6058 48.5 26.5332C57.3153 26.4596 65.0634 26.8188 70.6714 27.204C76.0185 27.5714 80.0167 32.0493 80.0167 37.3927V59.4079C80.0167 64.84 75.886 69.3753 70.4486 69.7258C64.6273 70.101 56.7426 70.4765 48.5 70.4765C40.2574 70.4765 32.3727 70.101 26.5514 69.7258C21.114 69.3753 16.9833 64.84 16.9833 59.4079V37.6017Z" fill="white"/>
</svg>
